<?xml version="1.0" encoding="UTF-8"?> <svg xmlns="http://www.w3.org/2000/svg" xmlns:xlink="http://www.w3.org/1999/xlink" xml:space="preserve" width="219px" height="108px" version="1.1" style="shape-rendering:geometricPrecision; text-rendering:geometricPrecision; image-rendering:optimizeQuality; fill-rule:evenodd; clip-rule:evenodd" viewBox="0 0 219 107.762"> <defs> <style type="text/css"> .str0 {stroke:#960010;stroke-width:1.043;stroke-miterlimit:22.9256} .str1 {stroke:#373435;stroke-width:1.738;stroke-miterlimit:22.9256} .str2 {stroke:#373435;stroke-width:1.738;stroke-miterlimit:22.9256} .str3 {stroke:#4B4B4D;stroke-width:2.781;stroke-miterlimit:22.9256} .fil3 {fill:none} .fil1 {fill:none;fill-rule:nonzero} .fil4 {fill:#727376} .fil2 {fill:#606062} .fil5 {fill:#606062} .fil6 {fill:#4B4B4D;fill-rule:nonzero} .fil0 {fill:#960010;fill-rule:nonzero} </style> </defs> <g id="Capa_x0020_1"> <metadata id="CorelCorpID_0Corel-Layer"></metadata> <polygon class="fil0" points="87.605,67.71 87.605,51.531 94.417,51.531 94.417,53.711 90.653,53.711 90.653,58.419 94.217,58.419 94.217,60.599 90.653,60.599 90.653,65.53 94.617,65.53 94.617,67.71 "></polygon> <polygon id="1" class="fil0" points="96.885,67.71 96.885,51.531 99.933,51.531 99.933,65.53 103.88,65.53 103.88,67.71 "></polygon> <polygon id="2" class="fil0" points="105.595,67.71 105.595,51.531 112.407,51.531 112.407,53.711 108.643,53.711 108.643,58.419 112.208,58.419 112.208,60.599 108.643,60.599 108.643,65.53 112.607,65.53 112.607,67.71 "></polygon> <path id="3" class="fil0" d="M124.885 63.762c-0.455,1.413 -1.105,2.491 -1.949,3.23 -0.841,0.743 -1.837,1.115 -2.987,1.115 -0.743,0 -1.432,-0.157 -2.065,-0.471 -0.635,-0.314 -1.204,-0.78 -1.71,-1.392 -0.677,-0.813 -1.185,-1.763 -1.524,-2.849 -0.338,-1.086 -0.508,-2.288 -0.508,-3.609 0,-2.519 0.553,-4.58 1.655,-6.191 1.105,-1.606 2.523,-2.411 4.258,-2.411 0.996,0 1.865,0.297 2.606,0.888 0.739,0.594 1.38,1.511 1.924,2.75l-1.382 1.515c-0.331,-1.048 -0.736,-1.837 -1.21,-2.362 -0.478,-0.524 -1.022,-0.784 -1.636,-0.784 -0.938,0 -1.662,0.561 -2.179,1.689 -0.513,1.123 -0.771,2.713 -0.771,4.769 0,1.896 0.294,3.424 0.885,4.584 0.592,1.161 1.366,1.743 2.326,1.743 0.606,0 1.158,-0.293 1.658,-0.876 0.499,-0.586 0.935,-1.449 1.307,-2.597l1.302 1.259z"></path> <polygon id="4" class="fil0" points="128.335,67.71 128.335,53.711 125.437,53.711 125.437,51.531 134.281,51.531 134.281,53.711 131.383,53.711 131.383,67.71 "></polygon> <path id="5" class="fil0" d="M135.744 67.71l0 -16.179 4.744 0c1.366,0 2.437,0.442 3.217,1.325 0.778,0.884 1.166,2.09 1.166,3.622 0,1.119 -0.211,2.04 -0.635,2.75 -0.422,0.715 -1.055,1.223 -1.896,1.52l2.628 6.962 -3.406 0 -2.653 -8.226 0.683 0c0.755,0 1.315,-0.239 1.682,-0.722 0.366,-0.479 0.549,-1.206 0.549,-2.185 0,-1.032 -0.188,-1.796 -0.569,-2.296 -0.38,-0.496 -0.971,-0.743 -1.776,-0.743l-0.769 0 0 14.172 -2.965 0z"></path> <path id="6" class="fil0" d="M149.435 59.649c0,2.028 0.222,3.61 0.666,4.745 0.444,1.136 1.055,1.706 1.829,1.706 0.78,0 1.391,-0.57 1.835,-1.706 0.444,-1.135 0.666,-2.717 0.666,-4.745 0,-2.023 -0.222,-3.601 -0.663,-4.732 -0.442,-1.136 -1.055,-1.701 -1.838,-1.701 -0.78,0 -1.39,0.565 -1.832,1.701 -0.441,1.131 -0.663,2.709 -0.663,4.732zm2.495 -8.44c0.752,0 1.474,0.181 2.165,0.549 0.694,0.367 1.288,0.888 1.788,1.557 0.602,0.797 1.058,1.734 1.366,2.812 0.308,1.074 0.463,2.259 0.463,3.547 0,1.284 -0.155,2.461 -0.469,3.527 -0.311,1.069 -0.763,2.003 -1.36,2.8 -0.505,0.669 -1.099,1.189 -1.788,1.557 -0.685,0.367 -1.407,0.549 -2.165,0.549 -0.755,0 -1.477,-0.186 -2.165,-0.558 -0.688,-0.371 -1.282,-0.888 -1.782,-1.548 -0.605,-0.814 -1.063,-1.755 -1.369,-2.829 -0.308,-1.074 -0.46,-2.255 -0.46,-3.543 0,-1.268 0.155,-2.441 0.469,-3.523 0.311,-1.078 0.763,-2.019 1.36,-2.816 0.494,-0.661 1.085,-1.173 1.774,-1.536 0.688,-0.364 1.413,-0.545 2.173,-0.545z"></path> <polygon id="7" class="fil0" points="165.926,58.444 165.926,51.531 168.974,51.531 168.974,67.71 165.926,67.71 165.926,60.624 162.662,60.624 162.662,67.71 159.614,67.71 159.614,51.531 162.662,51.531 162.662,58.444 "></polygon> <path id="8" class="fil0" d="M174.157 59.649c0,2.028 0.222,3.61 0.666,4.745 0.444,1.136 1.055,1.706 1.829,1.706 0.78,0 1.391,-0.57 1.835,-1.706 0.444,-1.135 0.666,-2.717 0.666,-4.745 0,-2.023 -0.222,-3.601 -0.663,-4.732 -0.442,-1.136 -1.055,-1.701 -1.838,-1.701 -0.78,0 -1.391,0.565 -1.832,1.701 -0.441,1.131 -0.663,2.709 -0.663,4.732zm2.495 -8.44c0.752,0 1.474,0.181 2.165,0.549 0.694,0.367 1.288,0.888 1.788,1.557 0.602,0.797 1.058,1.734 1.366,2.812 0.308,1.074 0.463,2.259 0.463,3.547 0,1.284 -0.155,2.461 -0.469,3.527 -0.311,1.069 -0.763,2.003 -1.36,2.8 -0.505,0.669 -1.099,1.189 -1.788,1.557 -0.685,0.367 -1.407,0.549 -2.165,0.549 -0.755,0 -1.477,-0.186 -2.165,-0.558 -0.688,-0.371 -1.283,-0.888 -1.782,-1.548 -0.605,-0.814 -1.063,-1.755 -1.369,-2.829 -0.308,-1.074 -0.46,-2.255 -0.46,-3.543 0,-1.268 0.155,-2.441 0.469,-3.523 0.311,-1.078 0.763,-2.019 1.36,-2.816 0.494,-0.661 1.085,-1.173 1.774,-1.536 0.688,-0.364 1.413,-0.545 2.173,-0.545z"></path> <path id="9" class="fil0" d="M194.829 65.154c-0.744,0.958 -1.572,1.693 -2.482,2.197 -0.911,0.504 -1.866,0.756 -2.862,0.756 -0.766,0 -1.471,-0.161 -2.115,-0.479 -0.647,-0.318 -1.224,-0.789 -1.732,-1.408 -0.686,-0.83 -1.194,-1.797 -1.53,-2.891 -0.336,-1.099 -0.505,-2.346 -0.505,-3.75 0,-1.21 0.169,-2.374 0.508,-3.489 0.339,-1.119 0.813,-2.069 1.421,-2.85 0.53,-0.677 1.133,-1.189 1.804,-1.536 0.675,-0.347 1.399,-0.52 2.182,-0.52 0.997,0 1.866,0.297 2.607,0.888 0.741,0.594 1.382,1.511 1.923,2.754l-1.379 1.511c-0.33,-1.048 -0.736,-1.837 -1.213,-2.362 -0.478,-0.524 -1.022,-0.784 -1.635,-0.784 -0.938,0 -1.666,0.561 -2.182,1.689 -0.514,1.123 -0.772,2.713 -0.772,4.769 0,1.871 0.292,3.391 0.872,4.555 0.58,1.165 1.332,1.747 2.262,1.747 0.347,0 0.672,-0.078 0.975,-0.235 0.305,-0.157 0.599,-0.393 0.888,-0.706l0 -4.51 2.965 0 0 4.654z"></path> <path id="10" class="fil0" d="M198.307 60.872l2.684 0 -1.407 -5.798 -1.277 5.798zm-3.098 6.838l3.733 -16.179 2.943 0 3.983 16.179 -3.237 0 -1.146 -4.782 -3.65 0 -1.08 4.782 -1.546 0z"></path> <path id="11" class="fil0" d="M207.131 67.71l0 -16.179 4.744 0c1.366,0 2.437,0.442 3.217,1.325 0.778,0.884 1.166,2.09 1.166,3.622 0,1.119 -0.211,2.04 -0.635,2.75 -0.422,0.715 -1.055,1.223 -1.896,1.52l2.628 6.962 -3.406 0 -2.653 -8.226 0.683 0c0.755,0 1.315,-0.239 1.682,-0.722 0.366,-0.479 0.549,-1.206 0.549,-2.185 0,-1.032 -0.188,-1.796 -0.569,-2.296 -0.38,-0.496 -0.971,-0.743 -1.776,-0.743l-0.769 0 0 14.172 -2.965 0z"></path> <polygon id="12" class="fil1 str0" points="87.605,67.71 87.605,51.531 94.417,51.531 94.417,53.711 90.653,53.711 90.653,58.419 94.217,58.419 94.217,60.599 90.653,60.599 90.653,65.53 94.617,65.53 94.617,67.71 "></polygon> <polygon id="13" class="fil1 str0" points="96.885,67.71 96.885,51.531 99.933,51.531 99.933,65.53 103.88,65.53 103.88,67.71 "></polygon> <polygon id="14" class="fil1 str0" points="105.595,67.71 105.595,51.531 112.407,51.531 112.407,53.711 108.643,53.711 108.643,58.419 112.208,58.419 112.208,60.599 108.643,60.599 108.643,65.53 112.607,65.53 112.607,67.71 "></polygon> <path id="15" class="fil1 str0" d="M124.885 63.762c-0.455,1.413 -1.105,2.491 -1.949,3.23 -0.841,0.743 -1.837,1.115 -2.987,1.115 -0.743,0 -1.432,-0.157 -2.065,-0.471 -0.635,-0.314 -1.204,-0.78 -1.71,-1.392 -0.677,-0.813 -1.185,-1.763 -1.524,-2.849 -0.338,-1.086 -0.508,-2.288 -0.508,-3.609 0,-2.519 0.553,-4.58 1.655,-6.191 1.105,-1.606 2.523,-2.411 4.258,-2.411 0.996,0 1.865,0.297 2.606,0.888 0.739,0.594 1.38,1.511 1.924,2.75l-1.382 1.515c-0.331,-1.048 -0.736,-1.837 -1.21,-2.362 -0.478,-0.524 -1.022,-0.784 -1.636,-0.784 -0.938,0 -1.662,0.561 -2.179,1.689 -0.513,1.123 -0.771,2.713 -0.771,4.769 0,1.896 0.294,3.424 0.885,4.584 0.592,1.161 1.366,1.743 2.326,1.743 0.606,0 1.158,-0.293 1.658,-0.876 0.499,-0.586 0.935,-1.449 1.307,-2.597l1.302 1.259z"></path> <polygon id="16" class="fil1 str0" points="128.335,67.71 128.335,53.711 125.437,53.711 125.437,51.531 134.281,51.531 134.281,53.711 131.383,53.711 131.383,67.71 "></polygon> <path id="17" class="fil1 str0" d="M135.744 67.71l0 -16.179 4.744 0c1.366,0 2.437,0.442 3.217,1.325 0.778,0.884 1.166,2.09 1.166,3.622 0,1.119 -0.211,2.04 -0.635,2.75 -0.422,0.715 -1.055,1.223 -1.896,1.52l2.628 6.962 -3.406 0 -2.653 -8.226 0.683 0c0.755,0 1.315,-0.239 1.682,-0.722 0.366,-0.479 0.549,-1.206 0.549,-2.185 0,-1.032 -0.188,-1.796 -0.569,-2.296 -0.38,-0.496 -0.971,-0.743 -1.776,-0.743l-0.769 0 0 14.172 -2.965 0z"></path> <path id="18" class="fil1 str0" d="M149.435 59.649c0,2.028 0.222,3.61 0.666,4.745 0.444,1.136 1.055,1.706 1.829,1.706 0.78,0 1.391,-0.57 1.835,-1.706 0.444,-1.135 0.666,-2.717 0.666,-4.745 0,-2.023 -0.222,-3.601 -0.663,-4.732 -0.442,-1.136 -1.055,-1.701 -1.838,-1.701 -0.78,0 -1.39,0.565 -1.832,1.701 -0.441,1.131 -0.663,2.709 -0.663,4.732zm2.495 -8.44c0.752,0 1.474,0.181 2.165,0.549 0.694,0.367 1.288,0.888 1.788,1.557 0.602,0.797 1.058,1.734 1.366,2.812 0.308,1.074 0.463,2.259 0.463,3.547 0,1.284 -0.155,2.461 -0.469,3.527 -0.311,1.069 -0.763,2.003 -1.36,2.8 -0.505,0.669 -1.099,1.189 -1.788,1.557 -0.685,0.367 -1.407,0.549 -2.165,0.549 -0.755,0 -1.477,-0.186 -2.165,-0.558 -0.688,-0.371 -1.282,-0.888 -1.782,-1.548 -0.605,-0.814 -1.063,-1.755 -1.369,-2.829 -0.308,-1.074 -0.46,-2.255 -0.46,-3.543 0,-1.268 0.155,-2.441 0.469,-3.523 0.311,-1.078 0.763,-2.019 1.36,-2.816 0.494,-0.661 1.085,-1.173 1.774,-1.536 0.688,-0.364 1.413,-0.545 2.173,-0.545z"></path> <polygon id="19" class="fil1 str0" points="165.926,58.444 165.926,51.531 168.974,51.531 168.974,67.71 165.926,67.71 165.926,60.624 162.662,60.624 162.662,67.71 159.614,67.71 159.614,51.531 162.662,51.531 162.662,58.444 "></polygon> <path id="20" class="fil1 str0" d="M174.157 59.649c0,2.028 0.222,3.61 0.666,4.745 0.444,1.136 1.055,1.706 1.829,1.706 0.78,0 1.391,-0.57 1.835,-1.706 0.444,-1.135 0.666,-2.717 0.666,-4.745 0,-2.023 -0.222,-3.601 -0.663,-4.732 -0.442,-1.136 -1.055,-1.701 -1.838,-1.701 -0.78,0 -1.391,0.565 -1.832,1.701 -0.441,1.131 -0.663,2.709 -0.663,4.732zm2.495 -8.44c0.752,0 1.474,0.181 2.165,0.549 0.694,0.367 1.288,0.888 1.788,1.557 0.602,0.797 1.058,1.734 1.366,2.812 0.308,1.074 0.463,2.259 0.463,3.547 0,1.284 -0.155,2.461 -0.469,3.527 -0.311,1.069 -0.763,2.003 -1.36,2.8 -0.505,0.669 -1.099,1.189 -1.788,1.557 -0.685,0.367 -1.407,0.549 -2.165,0.549 -0.755,0 -1.477,-0.186 -2.165,-0.558 -0.688,-0.371 -1.283,-0.888 -1.782,-1.548 -0.605,-0.814 -1.063,-1.755 -1.369,-2.829 -0.308,-1.074 -0.46,-2.255 -0.46,-3.543 0,-1.268 0.155,-2.441 0.469,-3.523 0.311,-1.078 0.763,-2.019 1.36,-2.816 0.494,-0.661 1.085,-1.173 1.774,-1.536 0.688,-0.364 1.413,-0.545 2.173,-0.545z"></path> <path id="21" class="fil1 str0" d="M194.829 65.154c-0.744,0.958 -1.572,1.693 -2.482,2.197 -0.911,0.504 -1.866,0.756 -2.862,0.756 -0.766,0 -1.471,-0.161 -2.115,-0.479 -0.647,-0.318 -1.224,-0.789 -1.732,-1.408 -0.686,-0.83 -1.194,-1.797 -1.53,-2.891 -0.336,-1.099 -0.505,-2.346 -0.505,-3.75 0,-1.21 0.169,-2.374 0.508,-3.489 0.339,-1.119 0.813,-2.069 1.421,-2.85 0.53,-0.677 1.133,-1.189 1.804,-1.536 0.675,-0.347 1.399,-0.52 2.182,-0.52 0.997,0 1.866,0.297 2.607,0.888 0.741,0.594 1.382,1.511 1.923,2.754l-1.379 1.511c-0.33,-1.048 -0.736,-1.837 -1.213,-2.362 -0.478,-0.524 -1.022,-0.784 -1.635,-0.784 -0.938,0 -1.666,0.561 -2.182,1.689 -0.514,1.123 -0.772,2.713 -0.772,4.769 0,1.871 0.292,3.391 0.872,4.555 0.58,1.165 1.332,1.747 2.262,1.747 0.347,0 0.672,-0.078 0.975,-0.235 0.305,-0.157 0.599,-0.393 0.888,-0.706l0 -4.51 2.965 0 0 4.654z"></path> <path id="22" class="fil1 str0" d="M198.307 60.872l2.684 0 -1.407 -5.798 -1.277 5.798zm-3.098 6.838l3.733 -16.179 2.943 0 3.983 16.179 -3.237 0 -1.146 -4.782 -3.65 0 -1.08 4.782 -1.546 0z"></path> <path id="23" class="fil1 str0" d="M207.131 67.71l0 -16.179 4.744 0c1.366,0 2.437,0.442 3.217,1.325 0.778,0.884 1.166,2.09 1.166,3.622 0,1.119 -0.211,2.04 -0.635,2.75 -0.422,0.715 -1.055,1.223 -1.896,1.52l2.628 6.962 -3.406 0 -2.653 -8.226 0.683 0c0.755,0 1.315,-0.239 1.682,-0.722 0.366,-0.479 0.549,-1.206 0.549,-2.185 0,-1.032 -0.188,-1.796 -0.569,-2.296 -0.38,-0.496 -0.971,-0.743 -1.776,-0.743l-0.769 0 0 14.172 -2.965 0z"></path> <path class="fil2 str1" d="M39.519 48.973c1.115,0 2.074,0.352 2.495,0.856 0.147,0.176 0.229,0.371 0.229,0.575 0,0.587 -0.671,1.091 -1.632,1.313 -0.335,0.077 -0.704,0.119 -1.092,0.119 -1.505,0 -2.725,-0.641 -2.725,-1.432 0,-0.79 1.22,-1.431 2.725,-1.431z"></path> <line class="fil3 str2" x1="17.633" y1="45.903" x2="10.202" y2="41.675"></line> <line class="fil3 str2" x1="17.554" y1="60.772" x2="45.43" y2="61.069"></line> <polyline class="fil3 str2" points="45.762,46.187 17.763,46.327 17.562,84.514 "></polyline> <line class="fil3 str2" x1="17.537" y1="64.127" x2="45.38" y2="64.486"></line> <line class="fil3 str2" x1="57.593" y1="68.332" x2="74.829" y2="68.739"></line> <polyline class="fil3 str2" points="74.779,84.082 74.829,68.739 81.842,61.918 "></polyline> <polyline class="fil3 str2" points="81.841,61.879 65.25,61.915 57.592,68.333 57.653,84.15 74.779,84.295 81.969,81.606 82.302,42.754 92,42.843 46.426,13.616 3.228,41.526 38.395,41.646 45.632,45.763 45.126,84.176 17.434,84.178 10.076,81.073 10.202,41.675 "></polyline> <polyline class="fil3 str2" points="65.25,61.915 65.372,56.876 82.181,56.855 "></polyline> <path class="fil4 str1" d="M76.111 58.351c0.452,0 0.819,0.37 0.819,0.826 0,0.457 -0.367,0.827 -0.819,0.827 -0.453,0 -0.82,-0.37 -0.82,-0.827 0,-0.456 0.367,-0.826 0.82,-0.826z"></path> <polygon class="fil5 str1" points="74.09,66.521 63.642,66.394 66.182,64.307 76.581,64.193 "></polygon> <path class="fil4 str1" d="M70.31 58.373c0.452,0 0.819,0.37 0.819,0.826 0,0.457 -0.367,0.826 -0.819,0.826 -0.453,0 -0.82,-0.369 -0.82,-0.826 0,-0.456 0.367,-0.826 0.82,-0.826z"></path> <rect class="fil2 str1" x="18.297" y="60.597" width="26.957" height="4.329"></rect> <path class="fil6" d="M91.925 77.863c0,0.318 -0.041,0.66 -0.126,1.029 -0.083,0.368 -0.215,0.73 -0.396,1.084 -0.179,0.357 -0.409,0.644 -0.688,0.866 -0.28,0.22 -0.606,0.332 -0.978,0.332 -0.282,0 -0.538,-0.049 -0.77,-0.149 -0.23,-0.099 -0.44,-0.254 -0.628,-0.465 -0.188,-0.209 -0.362,-0.487 -0.52,-0.83 -0.141,-0.312 -0.262,-0.66 -0.361,-1.047 -0.1,-0.387 -0.175,-0.801 -0.224,-1.239 -0.05,-0.44 -0.075,-0.906 -0.075,-1.399 0,-0.799 0.062,-1.518 0.188,-2.15 0.124,-0.635 0.305,-1.177 0.538,-1.626 0.234,-0.45 0.506,-0.792 0.82,-1.029 0.313,-0.234 0.648,-0.352 1.003,-0.352 0.433,0 0.818,0.16 1.156,0.482 0.338,0.32 0.597,0.718 0.777,1.191 0.179,0.472 0.27,0.917 0.27,1.339 0,0.231 -0.044,0.433 -0.132,0.611 -0.087,0.176 -0.193,0.264 -0.317,0.264 -0.138,0 -0.243,-0.062 -0.311,-0.183 -0.07,-0.122 -0.147,-0.333 -0.232,-0.632 -0.142,-0.494 -0.307,-0.862 -0.498,-1.107 -0.191,-0.244 -0.425,-0.366 -0.705,-0.366 -0.446,0 -0.8,0.315 -1.063,0.942 -0.264,0.631 -0.396,1.525 -0.396,2.683 0,0.774 0.058,1.418 0.175,1.932 0.116,0.514 0.282,0.897 0.496,1.151 0.214,0.253 0.464,0.38 0.751,0.38 0.312,0 0.574,-0.143 0.79,-0.431 0.215,-0.287 0.377,-0.709 0.486,-1.267 0.046,-0.262 0.104,-0.475 0.172,-0.642 0.067,-0.164 0.177,-0.247 0.328,-0.247 0.129,0 0.24,0.083 0.332,0.252 0.092,0.167 0.138,0.375 0.138,0.623z"></path> <path id="1" class="fil6" d="M95.344 80.134c-0.241,0.347 -0.474,0.606 -0.698,0.78 -0.225,0.174 -0.478,0.26 -0.757,0.26 -0.255,0 -0.48,-0.095 -0.673,-0.283 -0.193,-0.188 -0.342,-0.44 -0.447,-0.762 -0.105,-0.322 -0.157,-0.67 -0.157,-1.045 0,-0.507 0.086,-0.938 0.259,-1.295 0.173,-0.359 0.411,-0.598 0.713,-0.72 0.063,-0.028 0.219,-0.088 0.47,-0.183 0.25,-0.095 0.465,-0.181 0.643,-0.262 0.178,-0.079 0.372,-0.174 0.581,-0.287 -0.012,-0.489 -0.064,-0.848 -0.158,-1.075 -0.094,-0.229 -0.287,-0.343 -0.582,-0.343 -0.253,0 -0.443,0.065 -0.57,0.197 -0.129,0.13 -0.238,0.326 -0.329,0.591 -0.091,0.261 -0.156,0.433 -0.193,0.518 -0.038,0.084 -0.119,0.126 -0.243,0.126 -0.112,0 -0.209,-0.068 -0.29,-0.202 -0.081,-0.132 -0.122,-0.303 -0.122,-0.512 0,-0.327 0.063,-0.644 0.186,-0.952 0.124,-0.308 0.317,-0.561 0.58,-0.76 0.263,-0.199 0.59,-0.299 0.982,-0.299 0.437,0 0.782,0.098 1.032,0.29 0.25,0.192 0.427,0.496 0.53,0.913 0.104,0.417 0.156,0.968 0.156,1.656 0,0.435 -0.001,0.804 -0.003,1.107 -0.001,0.304 -0.002,0.642 -0.005,1.013 0,0.347 0.031,0.711 0.094,1.088 0.062,0.376 0.092,0.619 0.092,0.728 0,0.19 -0.047,0.363 -0.143,0.519 -0.097,0.155 -0.206,0.234 -0.328,0.234 -0.102,0 -0.203,-0.088 -0.302,-0.267 -0.1,-0.178 -0.206,-0.435 -0.318,-0.773zm-0.066 -2.685c-0.145,0.099 -0.357,0.206 -0.636,0.315 -0.277,0.111 -0.47,0.194 -0.577,0.245 -0.107,0.054 -0.209,0.155 -0.306,0.306 -0.097,0.153 -0.146,0.364 -0.146,0.637 0,0.28 0.057,0.519 0.172,0.716 0.113,0.197 0.262,0.296 0.448,0.296 0.197,0 0.378,-0.081 0.544,-0.241 0.167,-0.162 0.289,-0.368 0.367,-0.623 0.09,-0.28 0.134,-0.743 0.134,-1.387l0 -0.264z"></path> <path id="2" class="fil6" d="M97.266 80.048l0 -8.034c0,-0.371 0.045,-0.651 0.134,-0.841 0.088,-0.19 0.207,-0.285 0.358,-0.285 0.149,0 0.271,0.095 0.363,0.283 0.093,0.187 0.139,0.468 0.139,0.843l0 8.034c0,0.375 -0.048,0.655 -0.141,0.843 -0.093,0.188 -0.214,0.283 -0.361,0.283 -0.146,0 -0.264,-0.098 -0.355,-0.292 -0.091,-0.195 -0.137,-0.473 -0.137,-0.834z"></path> <path id="3" class="fil6" d="M100.284 74.692l0 5.356c0,0.37 -0.048,0.651 -0.142,0.841 -0.095,0.19 -0.214,0.285 -0.36,0.285 -0.146,0 -0.264,-0.098 -0.355,-0.292 -0.091,-0.195 -0.137,-0.473 -0.137,-0.834l0 -5.3c0,-0.369 0.046,-0.644 0.137,-0.83 0.091,-0.185 0.209,-0.278 0.355,-0.278 0.146,0 0.265,0.093 0.36,0.278 0.094,0.186 0.142,0.445 0.142,0.774zm-0.492 -1.914c-0.138,0 -0.256,-0.078 -0.355,-0.236 -0.098,-0.157 -0.147,-0.382 -0.147,-0.672 0,-0.259 0.05,-0.475 0.151,-0.644 0.101,-0.169 0.218,-0.254 0.351,-0.254 0.129,0 0.243,0.076 0.342,0.229 0.1,0.155 0.15,0.377 0.15,0.669 0,0.285 -0.049,0.508 -0.146,0.668 -0.097,0.159 -0.212,0.24 -0.346,0.24z"></path> <path id="4" class="fil6" d="M104.04 80.115l0 -0.183c-0.133,0.285 -0.265,0.517 -0.396,0.695 -0.129,0.178 -0.271,0.315 -0.423,0.408 -0.152,0.092 -0.317,0.139 -0.498,0.139 -0.237,0 -0.458,-0.095 -0.661,-0.283 -0.202,-0.188 -0.379,-0.454 -0.527,-0.804 -0.148,-0.347 -0.261,-0.757 -0.338,-1.228 -0.076,-0.47 -0.114,-0.979 -0.114,-1.526 0,-1.158 0.152,-2.062 0.455,-2.708 0.304,-0.647 0.705,-0.971 1.2,-0.971 0.288,0 0.529,0.093 0.726,0.276 0.197,0.183 0.39,0.465 0.576,0.848l0 -2.736c0,-0.38 0.041,-0.667 0.122,-0.862 0.082,-0.195 0.198,-0.292 0.349,-0.292 0.15,0 0.266,0.091 0.348,0.269 0.081,0.178 0.122,0.442 0.122,0.79l0 8.168c0,0.352 -0.043,0.619 -0.13,0.795 -0.089,0.176 -0.202,0.264 -0.34,0.264 -0.136,0 -0.249,-0.093 -0.337,-0.276 -0.089,-0.183 -0.134,-0.445 -0.134,-0.783zm-1.956 -2.72c0,0.503 0.042,0.929 0.125,1.284 0.084,0.352 0.198,0.616 0.345,0.794 0.146,0.179 0.305,0.269 0.477,0.269 0.175,0 0.335,-0.086 0.479,-0.255 0.144,-0.169 0.26,-0.428 0.346,-0.778 0.086,-0.352 0.13,-0.788 0.13,-1.314 0,-0.491 -0.044,-0.915 -0.13,-1.269 -0.086,-0.357 -0.203,-0.628 -0.35,-0.816 -0.147,-0.187 -0.307,-0.28 -0.483,-0.28 -0.181,0 -0.344,0.095 -0.488,0.287 -0.143,0.193 -0.254,0.468 -0.333,0.827 -0.079,0.362 -0.118,0.779 -0.118,1.251z"></path> <path id="5" class="fil6" d="M108.498 80.134c-0.242,0.347 -0.474,0.606 -0.698,0.78 -0.226,0.174 -0.478,0.26 -0.757,0.26 -0.255,0 -0.481,-0.095 -0.674,-0.283 -0.193,-0.188 -0.342,-0.44 -0.447,-0.762 -0.104,-0.322 -0.156,-0.67 -0.156,-1.045 0,-0.507 0.085,-0.938 0.258,-1.295 0.173,-0.359 0.411,-0.598 0.714,-0.72 0.062,-0.028 0.219,-0.088 0.469,-0.183 0.25,-0.095 0.466,-0.181 0.644,-0.262 0.178,-0.079 0.372,-0.174 0.581,-0.287 -0.013,-0.489 -0.065,-0.848 -0.158,-1.075 -0.095,-0.229 -0.288,-0.343 -0.583,-0.343 -0.252,0 -0.443,0.065 -0.57,0.197 -0.128,0.13 -0.238,0.326 -0.329,0.591 -0.09,0.261 -0.155,0.433 -0.192,0.518 -0.039,0.084 -0.12,0.126 -0.243,0.126 -0.112,0 -0.209,-0.068 -0.29,-0.202 -0.081,-0.132 -0.122,-0.303 -0.122,-0.512 0,-0.327 0.062,-0.644 0.185,-0.952 0.125,-0.308 0.318,-0.561 0.58,-0.76 0.263,-0.199 0.59,-0.299 0.982,-0.299 0.437,0 0.782,0.098 1.032,0.29 0.251,0.192 0.427,0.496 0.531,0.913 0.103,0.417 0.155,0.968 0.155,1.656 0,0.435 -0.001,0.804 -0.002,1.107 -0.002,0.304 -0.003,0.642 -0.005,1.013 0,0.347 0.031,0.711 0.093,1.088 0.062,0.376 0.092,0.619 0.092,0.728 0,0.19 -0.047,0.363 -0.143,0.519 -0.097,0.155 -0.205,0.234 -0.327,0.234 -0.102,0 -0.203,-0.088 -0.303,-0.267 -0.099,-0.178 -0.205,-0.435 -0.317,-0.773zm-0.066 -2.685c-0.146,0.099 -0.357,0.206 -0.636,0.315 -0.278,0.111 -0.471,0.194 -0.578,0.245 -0.107,0.054 -0.209,0.155 -0.306,0.306 -0.097,0.153 -0.146,0.364 -0.146,0.637 0,0.28 0.058,0.519 0.172,0.716 0.113,0.197 0.263,0.296 0.448,0.296 0.197,0 0.379,-0.081 0.544,-0.241 0.167,-0.162 0.289,-0.368 0.367,-0.623 0.09,-0.28 0.135,-0.743 0.135,-1.387l0 -0.264z"></path> <path id="6" class="fil6" d="M113.146 80.115l0 -0.183c-0.133,0.285 -0.265,0.517 -0.396,0.695 -0.13,0.178 -0.271,0.315 -0.423,0.408 -0.152,0.092 -0.318,0.139 -0.498,0.139 -0.238,0 -0.458,-0.095 -0.661,-0.283 -0.203,-0.188 -0.38,-0.454 -0.528,-0.804 -0.148,-0.347 -0.26,-0.757 -0.337,-1.228 -0.076,-0.47 -0.115,-0.979 -0.115,-1.526 0,-1.158 0.152,-2.062 0.456,-2.708 0.304,-0.647 0.704,-0.971 1.2,-0.971 0.287,0 0.529,0.093 0.725,0.276 0.197,0.183 0.39,0.465 0.577,0.848l0 -2.736c0,-0.38 0.041,-0.667 0.122,-0.862 0.082,-0.195 0.198,-0.292 0.348,-0.292 0.151,0 0.267,0.091 0.349,0.269 0.081,0.178 0.122,0.442 0.122,0.79l0 8.168c0,0.352 -0.044,0.619 -0.131,0.795 -0.088,0.176 -0.202,0.264 -0.34,0.264 -0.135,0 -0.249,-0.093 -0.337,-0.276 -0.088,-0.183 -0.133,-0.445 -0.133,-0.783zm-1.957 -2.72c0,0.503 0.042,0.929 0.126,1.284 0.083,0.352 0.198,0.616 0.344,0.794 0.146,0.179 0.305,0.269 0.477,0.269 0.176,0 0.335,-0.086 0.479,-0.255 0.145,-0.169 0.261,-0.428 0.347,-0.778 0.085,-0.352 0.129,-0.788 0.129,-1.314 0,-0.491 -0.044,-0.915 -0.129,-1.269 -0.086,-0.357 -0.203,-0.628 -0.35,-0.816 -0.147,-0.187 -0.308,-0.28 -0.483,-0.28 -0.182,0 -0.345,0.095 -0.488,0.287 -0.143,0.193 -0.254,0.468 -0.334,0.827 -0.078,0.362 -0.118,0.779 -0.118,1.251z"></path> <path id="7" class="fil6" d="M117.872 81.408l0.092 -0.415 -1.225 -5.743c-0.076,-0.331 -0.113,-0.572 -0.113,-0.72 0,-0.158 0.023,-0.306 0.066,-0.443 0.044,-0.134 0.103,-0.243 0.181,-0.324 0.076,-0.081 0.155,-0.123 0.237,-0.123 0.145,0 0.253,0.086 0.325,0.255 0.074,0.169 0.137,0.412 0.193,0.73l0.843 4.561 0.798 -4.242c0.063,-0.345 0.12,-0.613 0.171,-0.808 0.052,-0.195 0.105,-0.327 0.162,-0.394 0.058,-0.067 0.138,-0.102 0.243,-0.102 0.075,0 0.147,0.037 0.217,0.111 0.068,0.077 0.122,0.177 0.16,0.304 0.038,0.125 0.056,0.259 0.056,0.401 -0.01,0.085 -0.025,0.208 -0.047,0.366 -0.022,0.157 -0.049,0.319 -0.08,0.481l-1.298 6.327c-0.112,0.558 -0.222,0.994 -0.327,1.311 -0.107,0.317 -0.249,0.561 -0.426,0.73 -0.176,0.169 -0.413,0.255 -0.712,0.255 -0.291,0 -0.51,-0.058 -0.656,-0.176 -0.146,-0.119 -0.219,-0.334 -0.219,-0.644 0,-0.213 0.035,-0.378 0.104,-0.491 0.069,-0.116 0.172,-0.174 0.308,-0.174 0.053,0 0.106,0.014 0.157,0.039 0.063,0.028 0.118,0.042 0.164,0.042 0.114,0 0.204,-0.033 0.269,-0.095 0.066,-0.063 0.124,-0.174 0.177,-0.329 0.052,-0.158 0.113,-0.387 0.18,-0.69z"></path> <path id="8" class="fil6" d="M125.647 77.866l-1.948 0c0.002,0.421 0.048,0.792 0.137,1.114 0.088,0.322 0.206,0.563 0.353,0.725 0.147,0.164 0.31,0.246 0.487,0.246 0.119,0 0.228,-0.026 0.326,-0.079 0.1,-0.051 0.194,-0.132 0.286,-0.244 0.094,-0.111 0.178,-0.229 0.256,-0.356 0.078,-0.128 0.179,-0.299 0.303,-0.517 0.051,-0.081 0.124,-0.123 0.218,-0.123 0.102,0 0.186,0.054 0.249,0.158 0.062,0.102 0.095,0.25 0.095,0.44 0,0.167 -0.036,0.361 -0.106,0.586 -0.071,0.223 -0.177,0.438 -0.32,0.642 -0.142,0.206 -0.32,0.377 -0.535,0.512 -0.216,0.136 -0.463,0.204 -0.742,0.204 -0.64,0 -1.137,-0.341 -1.491,-1.02 -0.355,-0.678 -0.532,-1.598 -0.532,-2.761 0,-0.547 0.044,-1.056 0.131,-1.524 0.087,-0.468 0.215,-0.869 0.382,-1.205 0.168,-0.333 0.375,-0.591 0.62,-0.769 0.245,-0.178 0.518,-0.269 0.816,-0.269 0.39,0 0.724,0.153 1.001,0.459 0.279,0.306 0.487,0.7 0.626,1.186 0.139,0.484 0.208,0.978 0.208,1.48 0,0.466 -0.072,0.769 -0.215,0.908 -0.143,0.137 -0.345,0.207 -0.605,0.207zm-1.948 -1.057l1.805 0c-0.024,-0.632 -0.116,-1.105 -0.275,-1.42 -0.16,-0.312 -0.369,-0.47 -0.629,-0.47 -0.249,0 -0.452,0.16 -0.611,0.477 -0.159,0.32 -0.257,0.79 -0.29,1.413z"></path> <path id="9" class="fil6" d="M129.366 80.407l-0.722 -1.972 -0.739 1.972c-0.107,0.276 -0.198,0.472 -0.271,0.591 -0.075,0.118 -0.168,0.176 -0.283,0.176 -0.126,0 -0.234,-0.074 -0.322,-0.22 -0.089,-0.149 -0.134,-0.315 -0.134,-0.505 0,-0.195 0.069,-0.473 0.205,-0.834l0.9 -2.403 -0.798 -2.003c-0.139,-0.329 -0.208,-0.617 -0.208,-0.862 0,-0.19 0.041,-0.357 0.124,-0.496 0.082,-0.141 0.191,-0.211 0.324,-0.211 0.117,0 0.213,0.06 0.29,0.183 0.076,0.123 0.165,0.315 0.268,0.577l0.644 1.645 0.628 -1.645c0.104,-0.271 0.195,-0.466 0.271,-0.584 0.077,-0.118 0.172,-0.176 0.286,-0.176 0.131,0 0.241,0.07 0.326,0.206 0.086,0.139 0.13,0.306 0.13,0.501 0,0.141 -0.018,0.275 -0.052,0.403 -0.036,0.13 -0.09,0.283 -0.163,0.459l-0.798 2.003 0.9 2.403c0.14,0.375 0.211,0.657 0.211,0.847 0,0.195 -0.043,0.362 -0.131,0.501 -0.088,0.141 -0.196,0.211 -0.324,0.211 -0.115,0 -0.211,-0.061 -0.29,-0.183 -0.079,-0.123 -0.17,-0.318 -0.272,-0.584z"></path> <path id="10" class="fil6" d="M132.019 74.683l0 0.224c0.187,-0.431 0.382,-0.748 0.584,-0.949 0.201,-0.202 0.429,-0.304 0.684,-0.304 0.308,0 0.589,0.146 0.847,0.44 0.257,0.294 0.462,0.725 0.611,1.291 0.149,0.565 0.224,1.234 0.224,2.008 0,0.57 -0.044,1.093 -0.13,1.571 -0.085,0.477 -0.205,0.878 -0.355,1.202 -0.151,0.324 -0.329,0.572 -0.535,0.746 -0.205,0.174 -0.425,0.262 -0.662,0.262 -0.284,0 -0.523,-0.107 -0.715,-0.32 -0.193,-0.211 -0.378,-0.524 -0.553,-0.936l0 2.785c0,0.815 -0.159,1.223 -0.478,1.223 -0.187,0 -0.311,-0.105 -0.372,-0.315 -0.061,-0.211 -0.091,-0.517 -0.091,-0.92l0 -7.999c0,-0.352 0.041,-0.616 0.124,-0.79 0.082,-0.174 0.196,-0.262 0.339,-0.262 0.14,0 0.256,0.091 0.345,0.269 0.088,0.181 0.133,0.438 0.133,0.774zm1.949 2.694c0,-0.489 -0.04,-0.908 -0.121,-1.258 -0.079,-0.35 -0.19,-0.621 -0.332,-0.809 -0.143,-0.187 -0.3,-0.28 -0.472,-0.28 -0.275,0 -0.506,0.202 -0.694,0.602 -0.188,0.404 -0.283,0.997 -0.283,1.777 0,0.737 0.094,1.311 0.28,1.719 0.188,0.41 0.42,0.614 0.697,0.614 0.165,0 0.318,-0.09 0.458,-0.269 0.141,-0.178 0.254,-0.444 0.34,-0.801 0.085,-0.359 0.127,-0.79 0.127,-1.295z"></path> <path id="11" class="fil6" d="M138.545 77.866l-1.948 0c0.003,0.421 0.049,0.792 0.137,1.114 0.088,0.322 0.207,0.563 0.354,0.725 0.146,0.164 0.309,0.246 0.486,0.246 0.12,0 0.228,-0.026 0.326,-0.079 0.1,-0.051 0.195,-0.132 0.287,-0.244 0.093,-0.111 0.178,-0.229 0.255,-0.356 0.078,-0.128 0.179,-0.299 0.304,-0.517 0.051,-0.081 0.123,-0.123 0.217,-0.123 0.102,0 0.186,0.054 0.249,0.158 0.063,0.102 0.095,0.25 0.095,0.44 0,0.167 -0.036,0.361 -0.106,0.586 -0.071,0.223 -0.177,0.438 -0.32,0.642 -0.142,0.206 -0.32,0.377 -0.535,0.512 -0.215,0.136 -0.463,0.204 -0.742,0.204 -0.64,0 -1.136,-0.341 -1.491,-1.02 -0.355,-0.678 -0.532,-1.598 -0.532,-2.761 0,-0.547 0.044,-1.056 0.131,-1.524 0.087,-0.468 0.215,-0.869 0.382,-1.205 0.168,-0.333 0.375,-0.591 0.62,-0.769 0.245,-0.178 0.518,-0.269 0.817,-0.269 0.389,0 0.723,0.153 1,0.459 0.279,0.306 0.487,0.7 0.627,1.186 0.138,0.484 0.207,0.978 0.207,1.48 0,0.466 -0.072,0.769 -0.215,0.908 -0.143,0.137 -0.345,0.207 -0.605,0.207zm-1.948 -1.057l1.805 0c-0.024,-0.632 -0.116,-1.105 -0.275,-1.42 -0.159,-0.312 -0.369,-0.47 -0.629,-0.47 -0.249,0 -0.452,0.16 -0.611,0.477 -0.159,0.32 -0.256,0.79 -0.29,1.413z"></path> <path id="12" class="fil6" d="M141.191 78.5l0 1.548c0,0.375 -0.047,0.655 -0.141,0.843 -0.095,0.188 -0.214,0.283 -0.36,0.283 -0.143,0 -0.262,-0.095 -0.354,-0.285 -0.092,-0.19 -0.138,-0.471 -0.138,-0.841l0 -5.159c0,-0.832 0.162,-1.249 0.484,-1.249 0.165,0 0.284,0.098 0.356,0.292 0.074,0.195 0.114,0.484 0.121,0.864 0.118,-0.38 0.24,-0.669 0.366,-0.864 0.126,-0.194 0.293,-0.292 0.502,-0.292 0.209,0 0.412,0.098 0.608,0.292 0.197,0.195 0.295,0.454 0.295,0.776 0,0.227 -0.041,0.413 -0.125,0.561 -0.084,0.148 -0.175,0.22 -0.272,0.22 -0.036,0 -0.124,-0.042 -0.264,-0.125 -0.14,-0.084 -0.263,-0.125 -0.37,-0.125 -0.146,0 -0.264,0.071 -0.358,0.213 -0.092,0.143 -0.164,0.354 -0.215,0.635 -0.051,0.28 -0.086,0.613 -0.106,1 -0.019,0.387 -0.029,0.857 -0.029,1.413z"></path> <path id="13" class="fil6" d="M144.47 74.692l0 5.356c0,0.37 -0.047,0.651 -0.142,0.841 -0.094,0.19 -0.214,0.285 -0.359,0.285 -0.146,0 -0.264,-0.098 -0.355,-0.292 -0.091,-0.195 -0.137,-0.473 -0.137,-0.834l0 -5.3c0,-0.369 0.046,-0.644 0.137,-0.83 0.091,-0.185 0.209,-0.278 0.355,-0.278 0.145,0 0.265,0.093 0.359,0.278 0.095,0.186 0.142,0.445 0.142,0.774zm-0.491 -1.914c-0.139,0 -0.257,-0.078 -0.355,-0.236 -0.099,-0.157 -0.147,-0.382 -0.147,-0.672 0,-0.259 0.05,-0.475 0.15,-0.644 0.101,-0.169 0.218,-0.254 0.352,-0.254 0.129,0 0.242,0.076 0.342,0.229 0.099,0.155 0.149,0.377 0.149,0.669 0,0.285 -0.048,0.508 -0.145,0.668 -0.098,0.159 -0.212,0.24 -0.346,0.24z"></path> <path id="14" class="fil6" d="M148.278 77.866l-1.948 0c0.002,0.421 0.048,0.792 0.137,1.114 0.088,0.322 0.206,0.563 0.353,0.725 0.147,0.164 0.31,0.246 0.487,0.246 0.119,0 0.228,-0.026 0.326,-0.079 0.1,-0.051 0.194,-0.132 0.286,-0.244 0.094,-0.111 0.178,-0.229 0.256,-0.356 0.078,-0.128 0.179,-0.299 0.303,-0.517 0.051,-0.081 0.124,-0.123 0.218,-0.123 0.102,0 0.186,0.054 0.249,0.158 0.062,0.102 0.095,0.25 0.095,0.44 0,0.167 -0.036,0.361 -0.106,0.586 -0.071,0.223 -0.177,0.438 -0.32,0.642 -0.142,0.206 -0.32,0.377 -0.535,0.512 -0.216,0.136 -0.463,0.204 -0.742,0.204 -0.64,0 -1.137,-0.341 -1.491,-1.02 -0.355,-0.678 -0.532,-1.598 -0.532,-2.761 0,-0.547 0.044,-1.056 0.131,-1.524 0.087,-0.468 0.215,-0.869 0.382,-1.205 0.168,-0.333 0.375,-0.591 0.62,-0.769 0.245,-0.178 0.518,-0.269 0.816,-0.269 0.39,0 0.724,0.153 1.001,0.459 0.279,0.306 0.487,0.7 0.626,1.186 0.139,0.484 0.208,0.978 0.208,1.48 0,0.466 -0.072,0.769 -0.215,0.908 -0.143,0.137 -0.345,0.207 -0.605,0.207zm-1.948 -1.057l1.805 0c-0.024,-0.632 -0.116,-1.105 -0.275,-1.42 -0.16,-0.312 -0.369,-0.47 -0.629,-0.47 -0.249,0 -0.452,0.16 -0.611,0.477 -0.159,0.32 -0.257,0.79 -0.29,1.413z"></path> <path id="15" class="fil6" d="M150.84 74.664l0 0.225c0.175,-0.431 0.367,-0.746 0.575,-0.948 0.208,-0.201 0.447,-0.301 0.717,-0.301 0.262,0 0.496,0.107 0.704,0.32 0.207,0.211 0.361,0.512 0.463,0.901 0.066,0.227 0.109,0.47 0.129,0.734 0.018,0.262 0.028,0.596 0.028,1.003l0 3.45c0,0.37 -0.046,0.651 -0.137,0.841 -0.091,0.19 -0.21,0.285 -0.356,0.285 -0.148,0 -0.269,-0.098 -0.362,-0.292 -0.092,-0.195 -0.138,-0.473 -0.138,-0.834l0 -3.09c0,-0.61 -0.046,-1.078 -0.137,-1.402 -0.091,-0.322 -0.273,-0.484 -0.545,-0.484 -0.177,0 -0.339,0.097 -0.486,0.294 -0.145,0.197 -0.252,0.468 -0.32,0.813 -0.048,0.276 -0.073,0.79 -0.073,1.548l0 2.321c0,0.375 -0.047,0.655 -0.141,0.843 -0.093,0.188 -0.214,0.283 -0.361,0.283 -0.143,0 -0.261,-0.098 -0.353,-0.292 -0.092,-0.195 -0.138,-0.473 -0.138,-0.834l0 -5.356c0,-0.352 0.041,-0.616 0.123,-0.79 0.083,-0.174 0.195,-0.262 0.338,-0.262 0.088,0 0.167,0.04 0.237,0.116 0.071,0.077 0.127,0.192 0.169,0.345 0.042,0.153 0.064,0.343 0.064,0.563z"></path> <path id="16" class="fil6" d="M158.021 78.883c0,0.229 -0.038,0.477 -0.112,0.739 -0.074,0.261 -0.187,0.512 -0.339,0.748 -0.152,0.236 -0.343,0.428 -0.575,0.572 -0.23,0.146 -0.49,0.218 -0.78,0.218 -0.615,0 -1.096,-0.334 -1.441,-1.001 -0.346,-0.667 -0.519,-1.561 -0.519,-2.685 0,-0.76 0.08,-1.431 0.238,-2.015 0.158,-0.584 0.387,-1.036 0.686,-1.353 0.3,-0.32 0.657,-0.48 1.073,-0.48 0.258,0 0.494,0.07 0.709,0.211 0.214,0.141 0.398,0.322 0.547,0.544 0.149,0.223 0.264,0.459 0.342,0.709 0.08,0.253 0.12,0.487 0.12,0.705 0,0.222 -0.045,0.41 -0.134,0.565 -0.089,0.153 -0.196,0.229 -0.323,0.229 -0.082,0 -0.151,-0.039 -0.206,-0.118 -0.054,-0.079 -0.115,-0.206 -0.184,-0.382 -0.122,-0.343 -0.249,-0.603 -0.381,-0.774 -0.133,-0.171 -0.301,-0.257 -0.505,-0.257 -0.294,0 -0.532,0.213 -0.711,0.642 -0.18,0.426 -0.27,1.01 -0.27,1.751 0,0.347 0.024,0.667 0.07,0.959 0.046,0.292 0.112,0.542 0.2,0.746 0.087,0.206 0.193,0.361 0.318,0.468 0.123,0.106 0.26,0.16 0.408,0.16 0.199,0 0.37,-0.086 0.511,-0.257 0.144,-0.172 0.269,-0.436 0.379,-0.788 0.06,-0.209 0.126,-0.371 0.197,-0.487 0.069,-0.118 0.156,-0.178 0.258,-0.178 0.122,0 0.223,0.088 0.303,0.26 0.08,0.171 0.121,0.354 0.121,0.549z"></path> <path id="17" class="fil6" d="M159.88 74.692l0 5.356c0,0.37 -0.047,0.651 -0.141,0.841 -0.095,0.19 -0.215,0.285 -0.36,0.285 -0.146,0 -0.264,-0.098 -0.355,-0.292 -0.091,-0.195 -0.137,-0.473 -0.137,-0.834l0 -5.3c0,-0.369 0.046,-0.644 0.137,-0.83 0.091,-0.185 0.209,-0.278 0.355,-0.278 0.145,0 0.265,0.093 0.36,0.278 0.094,0.186 0.141,0.445 0.141,0.774zm-0.491 -1.914c-0.139,0 -0.257,-0.078 -0.355,-0.236 -0.098,-0.157 -0.147,-0.382 -0.147,-0.672 0,-0.259 0.05,-0.475 0.151,-0.644 0.1,-0.169 0.217,-0.254 0.351,-0.254 0.129,0 0.242,0.076 0.342,0.229 0.1,0.155 0.149,0.377 0.149,0.669 0,0.285 -0.048,0.508 -0.145,0.668 -0.097,0.159 -0.212,0.24 -0.346,0.24z"></path> <path id="18" class="fil6" d="M163.427 80.134c-0.242,0.347 -0.475,0.606 -0.699,0.78 -0.225,0.174 -0.478,0.26 -0.756,0.26 -0.256,0 -0.481,-0.095 -0.674,-0.283 -0.193,-0.188 -0.342,-0.44 -0.447,-0.762 -0.104,-0.322 -0.157,-0.67 -0.157,-1.045 0,-0.507 0.086,-0.938 0.259,-1.295 0.173,-0.359 0.411,-0.598 0.714,-0.72 0.062,-0.028 0.219,-0.088 0.469,-0.183 0.25,-0.095 0.465,-0.181 0.643,-0.262 0.178,-0.079 0.373,-0.174 0.582,-0.287 -0.013,-0.489 -0.065,-0.848 -0.158,-1.075 -0.095,-0.229 -0.288,-0.343 -0.583,-0.343 -0.253,0 -0.443,0.065 -0.57,0.197 -0.128,0.13 -0.238,0.326 -0.329,0.591 -0.09,0.261 -0.155,0.433 -0.193,0.518 -0.038,0.084 -0.119,0.126 -0.242,0.126 -0.112,0 -0.209,-0.068 -0.29,-0.202 -0.081,-0.132 -0.122,-0.303 -0.122,-0.512 0,-0.327 0.062,-0.644 0.185,-0.952 0.125,-0.308 0.318,-0.561 0.58,-0.76 0.263,-0.199 0.59,-0.299 0.982,-0.299 0.437,0 0.782,0.098 1.032,0.29 0.25,0.192 0.427,0.496 0.531,0.913 0.103,0.417 0.155,0.968 0.155,1.656 0,0.435 -0.001,0.804 -0.002,1.107 -0.002,0.304 -0.003,0.642 -0.005,1.013 0,0.347 0.031,0.711 0.093,1.088 0.062,0.376 0.092,0.619 0.092,0.728 0,0.19 -0.047,0.363 -0.143,0.519 -0.097,0.155 -0.205,0.234 -0.327,0.234 -0.102,0 -0.203,-0.088 -0.303,-0.267 -0.099,-0.178 -0.205,-0.435 -0.317,-0.773zm-0.066 -2.685c-0.146,0.099 -0.358,0.206 -0.636,0.315 -0.278,0.111 -0.471,0.194 -0.578,0.245 -0.107,0.054 -0.209,0.155 -0.306,0.306 -0.097,0.153 -0.146,0.364 -0.146,0.637 0,0.28 0.057,0.519 0.172,0.716 0.113,0.197 0.263,0.296 0.448,0.296 0.197,0 0.379,-0.081 0.544,-0.241 0.167,-0.162 0.289,-0.368 0.367,-0.623 0.09,-0.28 0.135,-0.743 0.135,-1.387l0 -0.264z"></path> <path id="19" class="fil6" d="M168.134 74.683l0 0.224c0.187,-0.431 0.383,-0.748 0.584,-0.949 0.202,-0.202 0.43,-0.304 0.685,-0.304 0.307,0 0.589,0.146 0.846,0.44 0.258,0.294 0.462,0.725 0.611,1.291 0.15,0.565 0.224,1.234 0.224,2.008 0,0.57 -0.043,1.093 -0.129,1.571 -0.086,0.477 -0.205,0.878 -0.356,1.202 -0.151,0.324 -0.329,0.572 -0.534,0.746 -0.205,0.174 -0.426,0.262 -0.662,0.262 -0.284,0 -0.523,-0.107 -0.716,-0.32 -0.193,-0.211 -0.377,-0.524 -0.553,-0.936l0 2.785c0,0.815 -0.159,1.223 -0.478,1.223 -0.186,0 -0.311,-0.105 -0.372,-0.315 -0.061,-0.211 -0.091,-0.517 -0.091,-0.92l0 -7.999c0,-0.352 0.041,-0.616 0.125,-0.79 0.082,-0.174 0.195,-0.262 0.338,-0.262 0.141,0 0.257,0.091 0.345,0.269 0.089,0.181 0.133,0.438 0.133,0.774zm1.95 2.694c0,-0.489 -0.04,-0.908 -0.121,-1.258 -0.08,-0.35 -0.19,-0.621 -0.332,-0.809 -0.143,-0.187 -0.3,-0.28 -0.472,-0.28 -0.275,0 -0.507,0.202 -0.695,0.602 -0.188,0.404 -0.282,0.997 -0.282,1.777 0,0.737 0.093,1.311 0.28,1.719 0.188,0.41 0.419,0.614 0.697,0.614 0.164,0 0.317,-0.09 0.458,-0.269 0.141,-0.178 0.254,-0.444 0.34,-0.801 0.084,-0.359 0.127,-0.79 0.127,-1.295z"></path> <path id="20" class="fil6" d="M174.399 80.134c-0.241,0.347 -0.474,0.606 -0.698,0.78 -0.225,0.174 -0.478,0.26 -0.757,0.26 -0.255,0 -0.48,-0.095 -0.673,-0.283 -0.193,-0.188 -0.343,-0.44 -0.447,-0.762 -0.105,-0.322 -0.157,-0.67 -0.157,-1.045 0,-0.507 0.086,-0.938 0.259,-1.295 0.173,-0.359 0.411,-0.598 0.713,-0.72 0.062,-0.028 0.219,-0.088 0.47,-0.183 0.25,-0.095 0.465,-0.181 0.643,-0.262 0.178,-0.079 0.372,-0.174 0.581,-0.287 -0.012,-0.489 -0.064,-0.848 -0.158,-1.075 -0.094,-0.229 -0.287,-0.343 -0.582,-0.343 -0.253,0 -0.443,0.065 -0.57,0.197 -0.129,0.13 -0.238,0.326 -0.329,0.591 -0.091,0.261 -0.156,0.433 -0.193,0.518 -0.039,0.084 -0.119,0.126 -0.243,0.126 -0.112,0 -0.209,-0.068 -0.29,-0.202 -0.081,-0.132 -0.122,-0.303 -0.122,-0.512 0,-0.327 0.063,-0.644 0.186,-0.952 0.124,-0.308 0.317,-0.561 0.58,-0.76 0.262,-0.199 0.59,-0.299 0.982,-0.299 0.437,0 0.782,0.098 1.032,0.29 0.25,0.192 0.427,0.496 0.53,0.913 0.103,0.417 0.156,0.968 0.156,1.656 0,0.435 -0.002,0.804 -0.003,1.107 -0.001,0.304 -0.002,0.642 -0.005,1.013 0,0.347 0.031,0.711 0.094,1.088 0.062,0.376 0.092,0.619 0.092,0.728 0,0.19 -0.048,0.363 -0.143,0.519 -0.098,0.155 -0.206,0.234 -0.328,0.234 -0.102,0 -0.203,-0.088 -0.302,-0.267 -0.1,-0.178 -0.206,-0.435 -0.318,-0.773zm-0.066 -2.685c-0.145,0.099 -0.357,0.206 -0.636,0.315 -0.277,0.111 -0.47,0.194 -0.577,0.245 -0.107,0.054 -0.209,0.155 -0.307,0.306 -0.097,0.153 -0.145,0.364 -0.145,0.637 0,0.28 0.057,0.519 0.172,0.716 0.113,0.197 0.262,0.296 0.448,0.296 0.196,0 0.378,-0.081 0.544,-0.241 0.166,-0.162 0.288,-0.368 0.367,-0.623 0.09,-0.28 0.134,-0.743 0.134,-1.387l0 -0.264z"></path> <path id="21" class="fil6" d="M177.307 78.5l0 1.548c0,0.375 -0.047,0.655 -0.142,0.843 -0.094,0.188 -0.214,0.283 -0.36,0.283 -0.143,0 -0.261,-0.095 -0.353,-0.285 -0.092,-0.19 -0.138,-0.471 -0.138,-0.841l0 -5.159c0,-0.832 0.162,-1.249 0.484,-1.249 0.164,0 0.284,0.098 0.356,0.292 0.073,0.195 0.113,0.484 0.121,0.864 0.118,-0.38 0.24,-0.669 0.366,-0.864 0.125,-0.194 0.292,-0.292 0.501,-0.292 0.209,0 0.412,0.098 0.609,0.292 0.197,0.195 0.295,0.454 0.295,0.776 0,0.227 -0.041,0.413 -0.126,0.561 -0.083,0.148 -0.174,0.22 -0.271,0.22 -0.036,0 -0.125,-0.042 -0.264,-0.125 -0.141,-0.084 -0.264,-0.125 -0.371,-0.125 -0.146,0 -0.264,0.071 -0.357,0.213 -0.092,0.143 -0.164,0.354 -0.215,0.635 -0.052,0.28 -0.086,0.613 -0.106,1 -0.019,0.387 -0.029,0.857 -0.029,1.413z"></path> <path id="22" class="fil6" d="M181.923 80.134c-0.242,0.347 -0.475,0.606 -0.699,0.78 -0.225,0.174 -0.478,0.26 -0.757,0.26 -0.255,0 -0.48,-0.095 -0.673,-0.283 -0.193,-0.188 -0.342,-0.44 -0.447,-0.762 -0.104,-0.322 -0.157,-0.67 -0.157,-1.045 0,-0.507 0.086,-0.938 0.259,-1.295 0.173,-0.359 0.411,-0.598 0.714,-0.72 0.062,-0.028 0.219,-0.088 0.469,-0.183 0.25,-0.095 0.465,-0.181 0.643,-0.262 0.178,-0.079 0.373,-0.174 0.582,-0.287 -0.013,-0.489 -0.065,-0.848 -0.158,-1.075 -0.095,-0.229 -0.288,-0.343 -0.583,-0.343 -0.253,0 -0.443,0.065 -0.57,0.197 -0.128,0.13 -0.238,0.326 -0.329,0.591 -0.091,0.261 -0.155,0.433 -0.193,0.518 -0.038,0.084 -0.119,0.126 -0.242,0.126 -0.112,0 -0.209,-0.068 -0.29,-0.202 -0.081,-0.132 -0.122,-0.303 -0.122,-0.512 0,-0.327 0.062,-0.644 0.185,-0.952 0.125,-0.308 0.318,-0.561 0.58,-0.76 0.263,-0.199 0.59,-0.299 0.982,-0.299 0.437,0 0.782,0.098 1.032,0.29 0.25,0.192 0.427,0.496 0.53,0.913 0.104,0.417 0.156,0.968 0.156,1.656 0,0.435 -0.001,0.804 -0.002,1.107 -0.002,0.304 -0.003,0.642 -0.005,1.013 0,0.347 0.031,0.711 0.093,1.088 0.062,0.376 0.092,0.619 0.092,0.728 0,0.19 -0.047,0.363 -0.143,0.519 -0.097,0.155 -0.205,0.234 -0.327,0.234 -0.103,0 -0.203,-0.088 -0.303,-0.267 -0.1,-0.178 -0.205,-0.435 -0.317,-0.773zm-0.066 -2.685c-0.146,0.099 -0.358,0.206 -0.636,0.315 -0.278,0.111 -0.471,0.194 -0.578,0.245 -0.107,0.054 -0.209,0.155 -0.306,0.306 -0.097,0.153 -0.146,0.364 -0.146,0.637 0,0.28 0.057,0.519 0.172,0.716 0.113,0.197 0.263,0.296 0.448,0.296 0.197,0 0.379,-0.081 0.544,-0.241 0.167,-0.162 0.289,-0.368 0.367,-0.623 0.09,-0.28 0.135,-0.743 0.135,-1.387l0 -0.264z"></path> <path id="23" class="fil6" d="M188.916 78.755c0,0.51 -0.067,0.948 -0.201,1.311 -0.133,0.364 -0.331,0.64 -0.592,0.827 -0.262,0.188 -0.579,0.281 -0.954,0.281 -0.357,0 -0.663,-0.102 -0.918,-0.306 -0.255,-0.202 -0.443,-0.457 -0.565,-0.762 -0.121,-0.304 -0.182,-0.61 -0.182,-0.918 0,-0.203 0.038,-0.377 0.117,-0.521 0.077,-0.146 0.175,-0.218 0.295,-0.218 0.104,0 0.184,0.049 0.24,0.144 0.056,0.095 0.11,0.227 0.161,0.401 0.102,0.329 0.224,0.577 0.366,0.739 0.142,0.164 0.336,0.245 0.581,0.245 0.199,0 0.362,-0.083 0.489,-0.248 0.128,-0.164 0.192,-0.354 0.192,-0.567 0,-0.327 -0.066,-0.563 -0.198,-0.714 -0.133,-0.148 -0.351,-0.292 -0.655,-0.428 -0.342,-0.158 -0.621,-0.324 -0.836,-0.498 -0.214,-0.174 -0.386,-0.406 -0.516,-0.691 -0.128,-0.285 -0.193,-0.637 -0.193,-1.051 0,-0.373 0.06,-0.723 0.178,-1.054 0.12,-0.332 0.295,-0.593 0.528,-0.79 0.232,-0.197 0.512,-0.297 0.84,-0.297 0.258,0 0.49,0.049 0.694,0.148 0.205,0.1 0.377,0.234 0.514,0.401 0.138,0.169 0.243,0.355 0.314,0.559 0.072,0.203 0.108,0.4 0.108,0.597 0,0.211 -0.039,0.387 -0.116,0.521 -0.076,0.137 -0.185,0.204 -0.326,0.204 -0.102,0 -0.189,-0.053 -0.262,-0.162 -0.07,-0.109 -0.153,-0.271 -0.246,-0.489 -0.075,-0.18 -0.163,-0.326 -0.265,-0.435 -0.102,-0.109 -0.24,-0.162 -0.416,-0.162 -0.179,0 -0.328,0.072 -0.448,0.213 -0.118,0.143 -0.178,0.322 -0.178,0.535 0,0.195 0.044,0.354 0.131,0.477 0.088,0.125 0.205,0.229 0.353,0.311 0.148,0.081 0.353,0.18 0.613,0.298 0.308,0.139 0.561,0.308 0.757,0.503 0.195,0.195 0.343,0.424 0.444,0.69 0.101,0.264 0.152,0.566 0.152,0.906z"></path> <path id="24" class="fil6" d="M192.343 80.129l0 -0.239c-0.12,0.281 -0.244,0.517 -0.376,0.707 -0.131,0.19 -0.274,0.331 -0.43,0.424 -0.155,0.092 -0.332,0.139 -0.531,0.139 -0.242,0 -0.457,-0.093 -0.648,-0.278 -0.19,-0.186 -0.338,-0.44 -0.443,-0.767 -0.123,-0.394 -0.185,-0.959 -0.185,-1.698l0 -3.669c0,-0.373 0.045,-0.649 0.134,-0.832 0.09,-0.183 0.209,-0.276 0.357,-0.276 0.15,0 0.272,0.093 0.364,0.278 0.092,0.186 0.138,0.461 0.138,0.83l0 2.965c0,0.428 0.02,0.79 0.059,1.082 0.038,0.291 0.108,0.521 0.209,0.685 0.101,0.165 0.238,0.248 0.411,0.248 0.168,0 0.326,-0.093 0.474,-0.278 0.148,-0.185 0.256,-0.428 0.325,-0.727 0.056,-0.262 0.083,-0.837 0.083,-1.724l0 -2.251c0,-0.369 0.046,-0.644 0.138,-0.83 0.094,-0.185 0.214,-0.278 0.362,-0.278 0.149,0 0.268,0.093 0.358,0.276 0.091,0.183 0.135,0.459 0.135,0.832l0 5.367c0,0.352 -0.043,0.616 -0.129,0.795 -0.087,0.176 -0.198,0.264 -0.335,0.264 -0.136,0 -0.249,-0.093 -0.337,-0.276 -0.089,-0.183 -0.133,-0.44 -0.133,-0.769z"></path> <path id="25" class="fil6" d="M197.109 72.014l0 2.745c0.127,-0.271 0.25,-0.486 0.371,-0.644 0.119,-0.157 0.252,-0.278 0.398,-0.357 0.147,-0.078 0.304,-0.118 0.472,-0.118 0.253,0 0.477,0.1 0.673,0.299 0.196,0.199 0.349,0.489 0.461,0.869 0.071,0.22 0.118,0.468 0.143,0.743 0.024,0.274 0.036,0.589 0.036,0.946l0 3.551c0,0.37 -0.046,0.651 -0.137,0.841 -0.091,0.19 -0.213,0.285 -0.363,0.285 -0.329,0 -0.493,-0.376 -0.493,-1.126l0 -3.13c0,-0.593 -0.048,-1.049 -0.142,-1.367 -0.095,-0.319 -0.275,-0.479 -0.54,-0.479 -0.177,0 -0.338,0.095 -0.48,0.282 -0.142,0.188 -0.249,0.443 -0.318,0.77 -0.054,0.275 -0.081,0.766 -0.081,1.473l0 2.451c0,0.366 -0.045,0.644 -0.133,0.836 -0.089,0.192 -0.212,0.29 -0.369,0.29 -0.327,0 -0.492,-0.376 -0.492,-1.126l0 -8.034c0,-0.375 0.044,-0.656 0.13,-0.843 0.086,-0.188 0.207,-0.283 0.362,-0.283 0.157,0 0.28,0.095 0.369,0.285 0.088,0.19 0.133,0.47 0.133,0.841z"></path> <path id="26" class="fil6" d="M204.376 77.409c0,0.554 -0.046,1.061 -0.138,1.527 -0.094,0.465 -0.227,0.866 -0.403,1.2 -0.174,0.336 -0.384,0.591 -0.627,0.769 -0.243,0.178 -0.517,0.269 -0.82,0.269 -0.303,0 -0.574,-0.091 -0.814,-0.271 -0.24,-0.181 -0.45,-0.441 -0.626,-0.779 -0.176,-0.336 -0.31,-0.734 -0.401,-1.193 -0.091,-0.461 -0.137,-0.968 -0.137,-1.524 0,-0.561 0.046,-1.075 0.138,-1.541 0.093,-0.465 0.225,-0.864 0.398,-1.195 0.173,-0.329 0.383,-0.584 0.628,-0.762 0.245,-0.178 0.516,-0.269 0.814,-0.269 0.301,0 0.575,0.091 0.82,0.271 0.245,0.181 0.456,0.44 0.631,0.776 0.176,0.334 0.309,0.732 0.4,1.196 0.091,0.461 0.137,0.97 0.137,1.526zm-1.001 0c0,-0.755 -0.09,-1.341 -0.268,-1.763 -0.179,-0.419 -0.418,-0.63 -0.719,-0.63 -0.196,0 -0.366,0.093 -0.514,0.281 -0.148,0.187 -0.263,0.465 -0.343,0.831 -0.08,0.366 -0.12,0.795 -0.12,1.281 0,0.484 0.04,0.908 0.118,1.27 0.08,0.361 0.192,0.639 0.339,0.831 0.146,0.193 0.321,0.288 0.52,0.288 0.301,0 0.54,-0.211 0.719,-0.635 0.178,-0.422 0.268,-1.008 0.268,-1.754z"></path> <path id="27" class="fil6" d="M208.819 75.002l0 5.382c0,0.616 -0.034,1.144 -0.105,1.587 -0.071,0.444 -0.183,0.81 -0.339,1.1 -0.155,0.289 -0.36,0.505 -0.611,0.644 -0.252,0.141 -0.565,0.211 -0.939,0.211 -0.343,0 -0.649,-0.091 -0.92,-0.269 -0.268,-0.178 -0.476,-0.41 -0.623,-0.693 -0.146,-0.282 -0.218,-0.572 -0.218,-0.871 0,-0.227 0.041,-0.41 0.123,-0.553 0.084,-0.142 0.183,-0.214 0.3,-0.214 0.146,0 0.274,0.119 0.384,0.36 0.053,0.12 0.109,0.243 0.165,0.368 0.057,0.123 0.121,0.229 0.189,0.317 0.07,0.088 0.154,0.155 0.251,0.197 0.097,0.044 0.209,0.065 0.334,0.065 0.258,0 0.457,-0.067 0.599,-0.199 0.143,-0.135 0.243,-0.32 0.299,-0.561 0.057,-0.238 0.091,-0.496 0.101,-0.769 0.01,-0.273 0.017,-0.711 0.021,-1.318 -0.153,0.398 -0.33,0.702 -0.53,0.908 -0.201,0.209 -0.44,0.313 -0.716,0.313 -0.334,0 -0.625,-0.158 -0.874,-0.475 -0.249,-0.317 -0.441,-0.76 -0.574,-1.332 -0.133,-0.57 -0.2,-1.228 -0.2,-1.974 0,-0.558 0.041,-1.061 0.122,-1.508 0.082,-0.447 0.198,-0.827 0.348,-1.133 0.151,-0.308 0.324,-0.539 0.522,-0.697 0.197,-0.155 0.413,-0.234 0.648,-0.234 0.282,0 0.527,0.102 0.734,0.304 0.206,0.201 0.398,0.518 0.575,0.949l0 -0.252c0,-0.322 0.043,-0.572 0.128,-0.748 0.085,-0.179 0.194,-0.267 0.329,-0.267 0.191,0 0.319,0.118 0.383,0.352 0.063,0.234 0.094,0.57 0.094,1.01zm-2.882 2.349c0,0.751 0.088,1.318 0.263,1.703 0.177,0.385 0.404,0.577 0.684,0.577 0.164,0 0.321,-0.084 0.468,-0.248 0.147,-0.165 0.266,-0.415 0.358,-0.746 0.093,-0.334 0.139,-0.737 0.139,-1.212 0,-0.755 -0.09,-1.343 -0.268,-1.765 -0.178,-0.419 -0.413,-0.63 -0.705,-0.63 -0.283,0 -0.511,0.202 -0.683,0.605 -0.17,0.403 -0.256,0.975 -0.256,1.716z"></path> <path id="28" class="fil6" d="M212.158 80.134c-0.242,0.347 -0.474,0.606 -0.698,0.78 -0.226,0.174 -0.478,0.26 -0.757,0.26 -0.255,0 -0.481,-0.095 -0.674,-0.283 -0.193,-0.188 -0.342,-0.44 -0.446,-0.762 -0.105,-0.322 -0.157,-0.67 -0.157,-1.045 0,-0.507 0.086,-0.938 0.259,-1.295 0.173,-0.359 0.41,-0.598 0.713,-0.72 0.062,-0.028 0.219,-0.088 0.469,-0.183 0.25,-0.095 0.466,-0.181 0.644,-0.262 0.178,-0.079 0.372,-0.174 0.581,-0.287 -0.012,-0.489 -0.065,-0.848 -0.158,-1.075 -0.095,-0.229 -0.288,-0.343 -0.583,-0.343 -0.252,0 -0.443,0.065 -0.57,0.197 -0.128,0.13 -0.238,0.326 -0.328,0.591 -0.091,0.261 -0.156,0.433 -0.193,0.518 -0.039,0.084 -0.12,0.126 -0.243,0.126 -0.112,0 -0.209,-0.068 -0.29,-0.202 -0.081,-0.132 -0.122,-0.303 -0.122,-0.512 0,-0.327 0.062,-0.644 0.185,-0.952 0.125,-0.308 0.318,-0.561 0.58,-0.76 0.263,-0.199 0.591,-0.299 0.983,-0.299 0.436,0 0.781,0.098 1.031,0.29 0.251,0.192 0.427,0.496 0.531,0.913 0.103,0.417 0.155,0.968 0.155,1.656 0,0.435 -0.001,0.804 -0.002,1.107 -0.001,0.304 -0.003,0.642 -0.005,1.013 0,0.347 0.031,0.711 0.093,1.088 0.062,0.376 0.092,0.619 0.092,0.728 0,0.19 -0.047,0.363 -0.143,0.519 -0.097,0.155 -0.205,0.234 -0.327,0.234 -0.102,0 -0.203,-0.088 -0.303,-0.267 -0.099,-0.178 -0.205,-0.435 -0.317,-0.773zm-0.066 -2.685c-0.146,0.099 -0.357,0.206 -0.636,0.315 -0.278,0.111 -0.471,0.194 -0.578,0.245 -0.107,0.054 -0.209,0.155 -0.306,0.306 -0.097,0.153 -0.146,0.364 -0.146,0.637 0,0.28 0.058,0.519 0.172,0.716 0.114,0.197 0.263,0.296 0.448,0.296 0.197,0 0.379,-0.081 0.544,-0.241 0.167,-0.162 0.289,-0.368 0.368,-0.623 0.089,-0.28 0.134,-0.743 0.134,-1.387l0 -0.264z"></path> <path id="29" class="fil6" d="M215.066 78.5l0 1.548c0,0.375 -0.048,0.655 -0.142,0.843 -0.095,0.188 -0.214,0.283 -0.36,0.283 -0.143,0 -0.261,-0.095 -0.353,-0.285 -0.093,-0.19 -0.139,-0.471 -0.139,-0.841l0 -5.159c0,-0.832 0.162,-1.249 0.485,-1.249 0.164,0 0.283,0.098 0.356,0.292 0.073,0.195 0.113,0.484 0.12,0.864 0.119,-0.38 0.241,-0.669 0.366,-0.864 0.126,-0.194 0.293,-0.292 0.502,-0.292 0.209,0 0.412,0.098 0.609,0.292 0.196,0.195 0.295,0.454 0.295,0.776 0,0.227 -0.041,0.413 -0.126,0.561 -0.084,0.148 -0.174,0.22 -0.271,0.22 -0.037,0 -0.125,-0.042 -0.264,-0.125 -0.141,-0.084 -0.264,-0.125 -0.371,-0.125 -0.146,0 -0.264,0.071 -0.358,0.213 -0.092,0.143 -0.164,0.354 -0.215,0.635 -0.051,0.28 -0.086,0.613 -0.106,1 -0.018,0.387 -0.028,0.857 -0.028,1.413z"></path> <polyline class="fil3 str3" points="81.97,82.268 82.303,43.416 92.001,43.505 46.427,14.278 3.229,42.188 10.25,42.366 10.124,81.764 "></polyline> </g> </svg> 